<?xml version="1.0" encoding="utf-8"?>
<!-- Generator: Adobe Illustrator 21.0.0, SVG Export Plug-In . SVG Version: 6.00 Build 0)  -->
<svg version="1.1" id="Camada_1" xmlns="http://www.w3.org/2000/svg" xmlns:xlink="http://www.w3.org/1999/xlink" x="0px" y="0px"
	 viewBox="293 166 213.3 60" enable-background="new 293 166 213.3 60" xml:space="preserve">
<g>
	<g>
		<path fill="#FCF8F8" d="M334.6,206.8c0,0.7-0.5,1.2-1.2,1.2h-9.6c-0.7,0-1.2-0.5-1.2-1.2v-9.6c0-0.7,0.5-1.2,1.2-1.2h9.6
			c0.7,0,1.2,0.5,1.2,1.2V206.8z"/>
		<path fill="#FCF8F8" d="M320.3,178.2c0,0.7-0.5,1.2-1.2,1.2h-9.6c-0.7,0-1.2-0.5-1.2-1.2v-9.7c0-0.7,0.5-1.2,1.2-1.2h9.6
			c0.7,0,1.2,0.5,1.2,1.2V178.2z"/>
		<path fill="#FCF8F8" d="M334.6,178.2c0,0.7-0.5,1.2-1.2,1.2h-9.6c-0.7,0-1.2-0.5-1.2-1.2v-9.7c0-0.7,0.5-1.2,1.2-1.2h9.6
			c0.7,0,1.2,0.5,1.2,1.2V178.2z"/>
		<path fill="#FCF8F8" d="M305.9,192.5c0,0.7-0.5,1.2-1.2,1.2h-9.6c-0.7,0-1.2-0.5-1.2-1.2v-9.7c0-0.7,0.5-1.2,1.2-1.2h9.6
			c0.7,0,1.2,0.5,1.2,1.2V192.5z"/>
		<path fill="#FCF8F8" d="M320.3,192.5c0,0.7-0.5,1.2-1.2,1.2h-9.6c-0.7,0-1.2-0.5-1.2-1.2v-9.7c0-0.7,0.5-1.2,1.2-1.2h9.6
			c0.7,0,1.2,0.5,1.2,1.2V192.5z"/>
		<path fill="#FCF8F8" d="M305.9,206.8c0,0.7-0.5,1.2-1.2,1.2h-9.6c-0.7,0-1.2-0.5-1.2-1.2v-9.6c0-0.7,0.5-1.2,1.2-1.2h9.6
			c0.7,0,1.2,0.5,1.2,1.2V206.8z"/>
		<path fill="#FCF8F8" d="M320.3,206.8c0,0.7-0.5,1.2-1.2,1.2h-9.6c-0.7,0-1.2-0.5-1.2-1.2v-9.6c0-0.7,0.5-1.2,1.2-1.2h9.6
			c0.7,0,1.2,0.5,1.2,1.2V206.8z"/>
		<path fill="#FCF8F8" d="M305.9,221c0,0.7-0.5,1.2-1.2,1.2h-9.6c-0.7,0-1.2-0.5-1.2-1.2v-9.6c0-0.7,0.5-1.2,1.2-1.2h9.6
			c0.7,0,1.2,0.5,1.2,1.2V221z"/>
		<path fill="#FCF8F8" d="M320.3,221c0,0.7-0.5,1.2-1.2,1.2h-9.6c-0.7,0-1.2-0.5-1.2-1.2v-9.6c0-0.7,0.5-1.2,1.2-1.2h9.6
			c0.7,0,1.2,0.5,1.2,1.2V221z"/>
		<path fill="#FCF8F8" d="M306.6,173.4c0,3.6-3,6.6-6.6,6.6c-3.6,0-6.6-3-6.6-6.6c0-3.6,3-6.6,6.6-6.6
			C303.6,166.8,306.6,169.8,306.6,173.4"/>
	</g>
	<g enable-background="new    ">
		<path fill="#FCF8F8" d="M344.1,204.2v3.8H343v-9.2h2.5c1.1,0,2,0.2,2.5,0.7c0.5,0.4,0.8,1.1,0.8,2c0,1.2-0.6,2-1.9,2.5l2.5,4.2
			h-1.3l-2.2-3.8H344.1z M344.1,203.3h1.5c0.8,0,1.3-0.2,1.7-0.5c0.4-0.3,0.5-0.8,0.5-1.4c0-0.6-0.2-1.1-0.5-1.3
			c-0.4-0.3-0.9-0.4-1.7-0.4h-1.4V203.3z"/>
		<path fill="#FCF8F8" d="M350.8,199.2c0-0.2,0.1-0.4,0.2-0.5c0.1-0.1,0.3-0.2,0.4-0.2c0.2,0,0.3,0.1,0.4,0.2
			c0.1,0.1,0.2,0.3,0.2,0.5c0,0.2-0.1,0.4-0.2,0.5c-0.1,0.1-0.3,0.2-0.4,0.2c-0.2,0-0.3-0.1-0.4-0.2
			C350.8,199.6,350.8,199.5,350.8,199.2z M351.9,208h-1.1v-6.9h1.1V208z"/>
		<path fill="#FCF8F8" d="M360.2,204.6c0,1.1-0.3,2-0.9,2.6c-0.6,0.6-1.4,1-2.4,1c-0.6,0-1.2-0.1-1.7-0.4c-0.5-0.3-0.9-0.7-1.1-1.3
			c-0.3-0.5-0.4-1.2-0.4-1.9c0-1.1,0.3-2,0.8-2.6c0.6-0.6,1.4-0.9,2.4-0.9c1,0,1.7,0.3,2.3,1C359.9,202.6,360.2,203.5,360.2,204.6z
			 M354.9,204.6c0,0.9,0.2,1.6,0.5,2c0.4,0.5,0.9,0.7,1.6,0.7s1.2-0.2,1.6-0.7c0.4-0.5,0.5-1.1,0.5-2c0-0.9-0.2-1.6-0.5-2
			c-0.4-0.5-0.9-0.7-1.6-0.7c-0.7,0-1.2,0.2-1.6,0.7C355,203,354.9,203.7,354.9,204.6z"/>
		<path fill="#FCF8F8" d="M369.6,203.2h3.1v4.5c-0.5,0.2-1,0.3-1.5,0.4c-0.5,0.1-1.1,0.1-1.8,0.1c-1.4,0-2.5-0.4-3.3-1.2
			c-0.8-0.8-1.2-2-1.2-3.5c0-1,0.2-1.8,0.6-2.5c0.4-0.7,0.9-1.3,1.7-1.7c0.7-0.4,1.6-0.6,2.6-0.6c1,0,1.9,0.2,2.8,0.5l-0.4,0.9
			c-0.8-0.4-1.6-0.5-2.4-0.5c-1.1,0-2,0.3-2.6,1c-0.6,0.7-1,1.6-1,2.8c0,1.2,0.3,2.2,0.9,2.8c0.6,0.6,1.5,1,2.7,1
			c0.6,0,1.3-0.1,1.9-0.2v-2.8h-2.1V203.2z"/>
		<path fill="#FCF8F8" d="M378,201c0.3,0,0.6,0,0.8,0.1l-0.1,1c-0.3-0.1-0.5-0.1-0.8-0.1c-0.6,0-1,0.2-1.4,0.7
			c-0.4,0.5-0.6,1-0.6,1.7v3.7h-1.1v-6.9h0.9l0.1,1.3h0.1c0.3-0.5,0.6-0.8,0.9-1C377.2,201.1,377.6,201,378,201z"/>
		<path fill="#FCF8F8" d="M384.4,208l-0.2-1h-0.1c-0.3,0.4-0.7,0.7-1,0.9c-0.3,0.2-0.8,0.2-1.3,0.2c-0.7,0-1.2-0.2-1.6-0.5
			c-0.4-0.4-0.6-0.9-0.6-1.5c0-1.4,1.1-2.1,3.4-2.2l1.2,0v-0.4c0-0.5-0.1-0.9-0.4-1.2c-0.2-0.3-0.6-0.4-1.1-0.4
			c-0.6,0-1.2,0.2-2,0.5l-0.3-0.8c0.3-0.2,0.7-0.3,1.1-0.4c0.4-0.1,0.8-0.2,1.2-0.2c0.8,0,1.4,0.2,1.8,0.6c0.4,0.4,0.6,1,0.6,1.8
			v4.7H384.4z M382,207.3c0.7,0,1.2-0.2,1.5-0.5c0.4-0.4,0.6-0.9,0.6-1.5v-0.6l-1.1,0c-0.8,0-1.4,0.2-1.8,0.4
			c-0.4,0.2-0.6,0.6-0.6,1.1c0,0.4,0.1,0.7,0.3,0.9C381.3,207.2,381.6,207.3,382,207.3z"/>
		<path fill="#FCF8F8" d="M392.1,208v-4.5c0-0.6-0.1-1-0.4-1.3c-0.3-0.3-0.7-0.4-1.2-0.4c-0.7,0-1.3,0.2-1.6,0.6
			c-0.3,0.4-0.5,1-0.5,1.9v3.6h-1.1v-6.9h0.9l0.2,0.9h0.1c0.2-0.3,0.5-0.6,0.9-0.8s0.8-0.3,1.3-0.3c0.8,0,1.5,0.2,1.9,0.6
			c0.4,0.4,0.6,1,0.6,1.9v4.5H392.1z"/>
		<path fill="#FCF8F8" d="M400,207.1L400,207.1c-0.5,0.7-1.3,1.1-2.2,1.1c-0.9,0-1.6-0.3-2.1-0.9c-0.5-0.6-0.8-1.5-0.8-2.6
			c0-1.1,0.3-2,0.8-2.7c0.5-0.6,1.2-0.9,2.1-0.9c0.9,0,1.7,0.3,2.2,1h0.1l0-0.5l0-0.5v-2.8h1.1v9.8h-0.9L400,207.1z M397.9,207.3
			c0.7,0,1.2-0.2,1.6-0.6c0.3-0.4,0.5-1,0.5-1.9v-0.2c0-1-0.2-1.7-0.5-2.1c-0.3-0.4-0.9-0.6-1.6-0.6c-0.6,0-1.1,0.2-1.4,0.7
			c-0.3,0.5-0.5,1.2-0.5,2c0,0.9,0.2,1.6,0.5,2C396.8,207.1,397.3,207.3,397.9,207.3z"/>
		<path fill="#FCF8F8" d="M406.2,208.2c-1,0-1.8-0.3-2.4-0.9c-0.6-0.6-0.9-1.5-0.9-2.6c0-1.1,0.3-2,0.8-2.7c0.6-0.7,1.3-1,2.2-1
			c0.9,0,1.6,0.3,2.1,0.9c0.5,0.6,0.8,1.3,0.8,2.3v0.7H404c0,0.8,0.2,1.4,0.6,1.9c0.4,0.4,0.9,0.6,1.7,0.6c0.7,0,1.5-0.2,2.2-0.5
			v0.9c-0.4,0.2-0.7,0.3-1.1,0.3C407.1,208.1,406.7,208.2,406.2,208.2z M405.9,201.9c-0.6,0-1,0.2-1.3,0.5c-0.3,0.4-0.5,0.9-0.6,1.5
			h3.6c0-0.7-0.1-1.2-0.4-1.5C406.9,202,406.5,201.9,405.9,201.9z"/>
		<path fill="#FCF8F8" d="M418.6,207.1L418.6,207.1c-0.5,0.7-1.3,1.1-2.2,1.1c-0.9,0-1.6-0.3-2.1-0.9s-0.8-1.5-0.8-2.6
			c0-1.1,0.3-2,0.8-2.7c0.5-0.6,1.2-0.9,2.1-0.9c0.9,0,1.7,0.3,2.2,1h0.1l0-0.5l0-0.5v-2.8h1.1v9.8h-0.9L418.6,207.1z M416.5,207.3
			c0.7,0,1.2-0.2,1.6-0.6c0.3-0.4,0.5-1,0.5-1.9v-0.2c0-1-0.2-1.7-0.5-2.1c-0.3-0.4-0.9-0.6-1.6-0.6c-0.6,0-1.1,0.2-1.4,0.7
			c-0.3,0.5-0.5,1.2-0.5,2c0,0.9,0.2,1.6,0.5,2C415.4,207.1,415.9,207.3,416.5,207.3z"/>
		<path fill="#FCF8F8" d="M427.9,204.6c0,1.1-0.3,2-0.9,2.6c-0.6,0.6-1.4,1-2.4,1c-0.6,0-1.2-0.1-1.7-0.4c-0.5-0.3-0.9-0.7-1.1-1.3
			c-0.3-0.5-0.4-1.2-0.4-1.9c0-1.1,0.3-2,0.8-2.6c0.6-0.6,1.4-0.9,2.4-0.9c1,0,1.7,0.3,2.3,1C427.6,202.6,427.9,203.5,427.9,204.6z
			 M422.6,204.6c0,0.9,0.2,1.6,0.5,2c0.4,0.5,0.9,0.7,1.6,0.7c0.7,0,1.2-0.2,1.6-0.7c0.4-0.5,0.5-1.1,0.5-2c0-0.9-0.2-1.6-0.5-2
			c-0.4-0.5-0.9-0.7-1.6-0.7c-0.7,0-1.2,0.2-1.6,0.7C422.7,203,422.6,203.7,422.6,204.6z"/>
		<path fill="#FCF8F8" d="M440.5,208h-1.2l-5.1-7.8h-0.1c0.1,0.9,0.1,1.7,0.1,2.5v5.3h-1v-9.2h1.2l5.1,7.7h0.1c0-0.1,0-0.5-0.1-1.1
			c0-0.6,0-1.1,0-1.3v-5.3h1V208z"/>
		<path fill="#FCF8F8" d="M448.9,204.6c0,1.1-0.3,2-0.9,2.6c-0.6,0.6-1.4,1-2.4,1c-0.6,0-1.2-0.1-1.7-0.4c-0.5-0.3-0.9-0.7-1.1-1.3
			c-0.3-0.5-0.4-1.2-0.4-1.9c0-1.1,0.3-2,0.8-2.6c0.6-0.6,1.4-0.9,2.4-0.9c1,0,1.7,0.3,2.3,1C448.6,202.6,448.9,203.5,448.9,204.6z
			 M443.6,204.6c0,0.9,0.2,1.6,0.5,2c0.4,0.5,0.9,0.7,1.6,0.7c0.7,0,1.2-0.2,1.6-0.7c0.4-0.5,0.5-1.1,0.5-2c0-0.9-0.2-1.6-0.5-2
			c-0.4-0.5-0.9-0.7-1.6-0.7c-0.7,0-1.2,0.2-1.6,0.7C443.7,203,443.6,203.7,443.6,204.6z"/>
		<path fill="#FCF8F8" d="M453.9,201c0.3,0,0.6,0,0.8,0.1l-0.1,1c-0.3-0.1-0.5-0.1-0.8-0.1c-0.6,0-1,0.2-1.4,0.7
			c-0.4,0.5-0.6,1-0.6,1.7v3.7h-1.1v-6.9h0.9l0.1,1.3h0.1c0.3-0.5,0.6-0.8,0.9-1C453,201.1,453.4,201,453.9,201z"/>
		<path fill="#FCF8F8" d="M458.2,207.3c0.2,0,0.4,0,0.5,0c0.2,0,0.3-0.1,0.4-0.1v0.8c-0.1,0.1-0.3,0.1-0.5,0.1
			c-0.2,0-0.4,0.1-0.6,0.1c-1.3,0-2-0.7-2-2.1v-4.1h-1v-0.5l1-0.4l0.4-1.5h0.6v1.6h2v0.8h-2v4.1c0,0.4,0.1,0.7,0.3,1
			C457.6,207.2,457.9,207.3,458.2,207.3z"/>
		<path fill="#FCF8F8" d="M463.5,208.2c-1,0-1.8-0.3-2.4-0.9c-0.6-0.6-0.9-1.5-0.9-2.6c0-1.1,0.3-2,0.8-2.7c0.6-0.7,1.3-1,2.2-1
			c0.9,0,1.6,0.3,2.1,0.9c0.5,0.6,0.8,1.3,0.8,2.3v0.7h-4.8c0,0.8,0.2,1.4,0.6,1.9c0.4,0.4,0.9,0.6,1.7,0.6c0.7,0,1.5-0.2,2.2-0.5
			v0.9c-0.4,0.2-0.7,0.3-1.1,0.3C464.4,208.1,464,208.2,463.5,208.2z M463.2,201.9c-0.6,0-1,0.2-1.3,0.5c-0.3,0.4-0.5,0.9-0.6,1.5
			h3.6c0-0.7-0.1-1.2-0.4-1.5C464.2,202,463.8,201.9,463.2,201.9z"/>
	</g>
	<g enable-background="new    ">
		<path fill="#FCF8F8" d="M346.8,214.1c-1,0-1.8,0.3-2.3,1c-0.6,0.7-0.9,1.6-0.9,2.7c0,1.2,0.3,2.1,0.8,2.7c0.5,0.6,1.3,1,2.4,1
			c0.6,0,1.3-0.1,2.1-0.3v0.9c-0.6,0.2-1.4,0.3-2.3,0.3c-1.3,0-2.3-0.4-3.1-1.2c-0.7-0.8-1.1-1.9-1.1-3.4c0-0.9,0.2-1.7,0.5-2.4
			c0.3-0.7,0.8-1.2,1.5-1.6c0.7-0.4,1.4-0.6,2.3-0.6c0.9,0,1.8,0.2,2.5,0.5l-0.4,0.9C348.2,214.3,347.5,214.1,346.8,214.1z"/>
		<path fill="#FCF8F8" d="M354.9,222.3l-0.2-1h0c-0.3,0.4-0.7,0.7-1,0.9c-0.3,0.1-0.7,0.2-1.2,0.2c-0.7,0-1.2-0.2-1.6-0.5
			c-0.4-0.3-0.6-0.8-0.6-1.5c0-1.4,1.1-2.1,3.3-2.1l1.1,0v-0.4c0-0.5-0.1-0.9-0.3-1.2c-0.2-0.3-0.6-0.4-1.1-0.4
			c-0.6,0-1.2,0.2-1.9,0.5l-0.3-0.8c0.3-0.2,0.7-0.3,1.1-0.4c0.4-0.1,0.8-0.2,1.2-0.2c0.8,0,1.4,0.2,1.8,0.5
			c0.4,0.4,0.6,0.9,0.6,1.7v4.6H354.9z M352.6,221.6c0.6,0,1.1-0.2,1.5-0.5c0.4-0.3,0.5-0.8,0.5-1.5V219l-1,0
			c-0.8,0-1.4,0.2-1.8,0.4c-0.4,0.2-0.5,0.6-0.5,1c0,0.4,0.1,0.6,0.3,0.8C351.9,221.5,352.2,221.6,352.6,221.6z"/>
		<path fill="#FCF8F8" d="M366.3,222.3v-4.4c0-0.5-0.1-0.9-0.3-1.2c-0.2-0.3-0.6-0.4-1.1-0.4c-0.6,0-1.1,0.2-1.4,0.5
			c-0.3,0.4-0.5,0.9-0.5,1.7v3.7h-1v-4.4c0-0.5-0.1-0.9-0.3-1.2c-0.2-0.3-0.6-0.4-1.1-0.4c-0.6,0-1.1,0.2-1.4,0.6
			c-0.3,0.4-0.4,1-0.4,1.9v3.5h-1v-6.7h0.8l0.2,0.9h0c0.2-0.3,0.5-0.6,0.8-0.8c0.3-0.2,0.7-0.3,1.2-0.3c1.1,0,1.7,0.4,2.1,1.1h0
			c0.2-0.4,0.5-0.6,0.9-0.8c0.4-0.2,0.8-0.3,1.3-0.3c0.8,0,1.3,0.2,1.7,0.6c0.4,0.4,0.6,1,0.6,1.9v4.4H366.3z"/>
		<path fill="#FCF8F8" d="M372.5,222.4c-0.4,0-0.8-0.1-1.2-0.2c-0.4-0.2-0.7-0.4-0.9-0.7h-0.1c0,0.4,0.1,0.8,0.1,1.1v2.8h-1v-9.7
			h0.8l0.1,0.9h0c0.3-0.4,0.6-0.6,0.9-0.8c0.3-0.2,0.7-0.2,1.2-0.2c0.9,0,1.6,0.3,2.1,0.9c0.5,0.6,0.7,1.5,0.7,2.6
			c0,1.1-0.2,2-0.7,2.6C374.1,222.1,373.4,222.4,372.5,222.4z M372.4,216.3c-0.7,0-1.2,0.2-1.5,0.6c-0.3,0.4-0.5,1-0.5,1.8v0.2
			c0,0.9,0.2,1.6,0.5,2c0.3,0.4,0.8,0.6,1.5,0.6c0.6,0,1-0.2,1.4-0.7c0.3-0.5,0.5-1.1,0.5-1.9c0-0.8-0.2-1.5-0.5-1.9
			C373.5,216.5,373,216.3,372.4,216.3z"/>
		<path fill="#FCF8F8" d="M378.1,215.6v4.4c0,0.5,0.1,1,0.4,1.2c0.2,0.3,0.6,0.4,1.2,0.4c0.7,0,1.2-0.2,1.5-0.6
			c0.3-0.4,0.5-1,0.5-1.9v-3.5h1v6.7h-0.8l-0.1-0.9h-0.1c-0.2,0.3-0.5,0.6-0.9,0.8c-0.4,0.2-0.8,0.3-1.3,0.3c-0.8,0-1.4-0.2-1.8-0.6
			c-0.4-0.4-0.6-1-0.6-1.9v-4.4H378.1z"/>
		<path fill="#FCF8F8" d="M389.2,220.5c0,0.6-0.2,1.1-0.7,1.4c-0.5,0.3-1.1,0.5-2,0.5c-0.9,0-1.6-0.1-2.1-0.4v-0.9
			c0.3,0.2,0.7,0.3,1,0.4c0.4,0.1,0.7,0.1,1.1,0.1c0.5,0,0.9-0.1,1.2-0.3c0.3-0.2,0.4-0.4,0.4-0.8c0-0.3-0.1-0.5-0.3-0.7
			c-0.2-0.2-0.7-0.4-1.3-0.7c-0.6-0.2-1.1-0.4-1.3-0.6c-0.3-0.2-0.5-0.4-0.6-0.6c-0.1-0.2-0.2-0.5-0.2-0.8c0-0.5,0.2-1,0.7-1.3
			c0.4-0.3,1.1-0.5,1.8-0.5c0.7,0,1.4,0.1,2.1,0.4l-0.4,0.8c-0.7-0.3-1.3-0.4-1.8-0.4c-0.5,0-0.8,0.1-1.1,0.2
			c-0.2,0.2-0.4,0.4-0.4,0.6c0,0.2,0,0.3,0.1,0.5c0.1,0.1,0.2,0.2,0.4,0.4c0.2,0.1,0.6,0.3,1.2,0.5c0.8,0.3,1.3,0.6,1.6,0.9
			C389,219.7,389.2,220,389.2,220.5z"/>
		<path fill="#FCF8F8" d="M399.2,222.3h-5v-9h5v0.9h-4v2.9h3.7v0.9h-3.7v3.3h4V222.3z"/>
		<path fill="#FCF8F8" d="M405.2,222.3l-0.2-1h0c-0.3,0.4-0.7,0.7-1,0.9c-0.3,0.1-0.7,0.2-1.2,0.2c-0.7,0-1.2-0.2-1.6-0.5
			c-0.4-0.3-0.6-0.8-0.6-1.5c0-1.4,1.1-2.1,3.3-2.1l1.1,0v-0.4c0-0.5-0.1-0.9-0.3-1.2c-0.2-0.3-0.6-0.4-1.1-0.4
			c-0.6,0-1.2,0.2-1.9,0.5l-0.3-0.8c0.3-0.2,0.7-0.3,1.1-0.4c0.4-0.1,0.8-0.2,1.2-0.2c0.8,0,1.4,0.2,1.8,0.5
			c0.4,0.4,0.6,0.9,0.6,1.7v4.6H405.2z M402.9,221.6c0.6,0,1.1-0.2,1.5-0.5c0.4-0.3,0.5-0.8,0.5-1.5V219l-1,0
			c-0.8,0-1.4,0.2-1.8,0.4c-0.4,0.2-0.5,0.6-0.5,1c0,0.4,0.1,0.6,0.3,0.8C402.2,221.5,402.5,221.6,402.9,221.6z"/>
		<path fill="#FCF8F8" d="M415.4,217.7c0,1.5-0.4,2.6-1.2,3.4c-0.8,0.8-2,1.2-3.5,1.2h-2.5v-9h2.7c1.4,0,2.5,0.4,3.3,1.2
			C415,215.3,415.4,216.4,415.4,217.7z M414.3,217.8c0-1.2-0.3-2-0.9-2.6c-0.6-0.6-1.5-0.9-2.6-0.9h-1.5v7.2h1.3
			c1.2,0,2.2-0.3,2.8-0.9C414,219.9,414.3,219,414.3,217.8z"/>
	</g>
	<g enable-background="new    ">
		<path fill="#FCF8F8" d="M342.9,193.4v-11.8h2.5v11.8H342.9z"/>
		<path fill="#FCF8F8" d="M359,193.4h-3.2l-5.2-9h-0.1c0.1,1.6,0.2,2.7,0.2,3.4v5.6h-2.2v-11.8h3.2l5.2,8.9h0.1
			c-0.1-1.5-0.1-2.6-0.1-3.3v-5.6h2.3V193.4z"/>
		<path fill="#FCF8F8" d="M369,190.1c0,1.1-0.4,1.9-1.2,2.5c-0.8,0.6-1.8,0.9-3.2,0.9c-1.3,0-2.4-0.2-3.4-0.7v-2.3
			c0.8,0.4,1.5,0.6,2,0.8c0.6,0.1,1.1,0.2,1.5,0.2c0.6,0,1-0.1,1.3-0.3c0.3-0.2,0.4-0.5,0.4-0.9c0-0.2-0.1-0.4-0.2-0.6
			c-0.1-0.2-0.3-0.4-0.6-0.5c-0.3-0.2-0.8-0.4-1.5-0.8c-0.7-0.3-1.3-0.7-1.6-1c-0.4-0.3-0.7-0.7-0.9-1.1c-0.2-0.4-0.3-0.9-0.3-1.5
			c0-1,0.4-1.9,1.1-2.5c0.7-0.6,1.7-0.9,3-0.9c0.6,0,1.2,0.1,1.8,0.2c0.6,0.1,1.1,0.4,1.8,0.6l-0.8,2c-0.6-0.3-1.2-0.4-1.6-0.5
			c-0.4-0.1-0.8-0.2-1.2-0.2c-0.5,0-0.8,0.1-1.1,0.3c-0.3,0.2-0.4,0.5-0.4,0.9c0,0.2,0.1,0.4,0.2,0.6c0.1,0.2,0.3,0.3,0.5,0.5
			c0.2,0.2,0.8,0.4,1.6,0.8c1.1,0.5,1.9,1.1,2.3,1.6C368.7,188.6,369,189.3,369,190.1z"/>
		<path fill="#FCF8F8" d="M375.7,193.4h-2.5v-9.8h-3.2v-2.1h9v2.1h-3.2V193.4z"/>
		<path fill="#FCF8F8" d="M380.7,193.4v-11.8h2.5v11.8H380.7z"/>
		<path fill="#FCF8F8" d="M390.8,193.4h-2.5v-9.8h-3.2v-2.1h9v2.1h-3.2V193.4z"/>
		<path fill="#FCF8F8" d="M405.5,181.5v7.7c0,0.9-0.2,1.6-0.6,2.3c-0.4,0.7-1,1.2-1.7,1.5c-0.7,0.4-1.6,0.5-2.6,0.5
			c-1.5,0-2.7-0.4-3.6-1.2c-0.8-0.8-1.3-1.8-1.3-3.2v-7.6h2.5v7.3c0,0.9,0.2,1.6,0.6,2c0.4,0.4,1,0.6,1.8,0.6c0.8,0,1.4-0.2,1.8-0.6
			c0.4-0.4,0.6-1.1,0.6-2v-7.2H405.5z"/>
		<path fill="#FCF8F8" d="M413,193.4h-2.5v-9.8h-3.2v-2.1h9v2.1H413V193.4z"/>
		<path fill="#FCF8F8" d="M428.8,187.4c0,2-0.5,3.5-1.5,4.5c-1,1.1-2.4,1.6-4.2,1.6c-1.8,0-3.2-0.5-4.2-1.6c-1-1.1-1.5-2.6-1.5-4.5
			c0-2,0.5-3.5,1.5-4.5c1-1,2.4-1.6,4.2-1.6c1.8,0,3.2,0.5,4.2,1.6C428.4,183.9,428.8,185.5,428.8,187.4z M420.2,187.4
			c0,1.3,0.3,2.3,0.8,3c0.5,0.7,1.3,1,2.3,1c2,0,3-1.3,3-4c0-2.7-1-4-3-4c-1,0-1.8,0.3-2.3,1C420.4,185.1,420.2,186.1,420.2,187.4z"
			/>
		<path fill="#FCF8F8" d="M438.1,193.4h-2.5v-11.8h6.8v2.1h-4.3v3.1h4v2.1h-4V193.4z"/>
		<path fill="#FCF8F8" d="M451.6,193.4h-6.8v-11.8h6.8v2.1h-4.3v2.6h4v2.1h-4v3.1h4.3V193.4z"/>
		<path fill="#FCF8F8" d="M463.9,187.3c0,2-0.6,3.4-1.7,4.5c-1.1,1-2.7,1.6-4.8,1.6h-3.4v-11.8h3.7c1.9,0,3.4,0.5,4.5,1.5
			C463.4,184.1,463.9,185.5,463.9,187.3z M461.3,187.4c0-2.5-1.1-3.8-3.4-3.8h-1.3v7.7h1.1C460.1,191.3,461.3,190,461.3,187.4z"/>
		<path fill="#FCF8F8" d="M473.2,193.4h-6.8v-11.8h6.8v2.1h-4.3v2.6h4v2.1h-4v3.1h4.3V193.4z"/>
		<path fill="#FCF8F8" d="M478.2,188.8v4.5h-2.5v-11.8h3.5c1.6,0,2.8,0.3,3.6,0.9c0.8,0.6,1.2,1.5,1.2,2.7c0,0.7-0.2,1.3-0.6,1.9
			c-0.4,0.5-0.9,1-1.6,1.3c1.8,2.7,3,4.4,3.5,5.2h-2.8l-2.8-4.5H478.2z M478.2,186.8h0.8c0.8,0,1.4-0.1,1.8-0.4
			c0.4-0.3,0.6-0.7,0.6-1.2c0-0.6-0.2-1-0.6-1.2c-0.4-0.2-1-0.4-1.8-0.4h-0.8V186.8z"/>
		<path fill="#FCF8F8" d="M493.9,193.4l-0.9-2.8h-4.3l-0.9,2.8h-2.7l4.2-11.9h3.1l4.2,11.9H493.9z M492.5,188.4
			c-0.8-2.6-1.2-4-1.3-4.3c-0.1-0.3-0.2-0.6-0.2-0.8c-0.2,0.7-0.7,2.4-1.5,5.1H492.5z"/>
		<path fill="#FCF8F8" d="M498.1,193.4v-11.8h2.5v9.8h4.8v2.1H498.1z"/>
	</g>
</g>
</svg>
