<?xml version="1.0" encoding="utf-8"?>
<!-- Generator: Adobe Illustrator 21.0.0, SVG Export Plug-In . SVG Version: 6.00 Build 0)  -->
<svg version="1.1" id="Camada_1" xmlns="http://www.w3.org/2000/svg" xmlns:xlink="http://www.w3.org/1999/xlink" x="0px" y="0px"
	 viewBox="0 0 42.5 57" enable-background="new 0 0 42.5 57" xml:space="preserve">
<g>
	<g>
		<path fill="#FCF8F8" d="M41.6,40.8c0,0.7-0.5,1.2-1.2,1.2h-9.6c-0.7,0-1.2-0.5-1.2-1.2v-9.6c0-0.7,0.5-1.2,1.2-1.2h9.6
			c0.7,0,1.2,0.5,1.2,1.2V40.8z"/>
		<path fill="#FCF8F8" d="M27.3,12.2c0,0.7-0.5,1.2-1.2,1.2h-9.6c-0.7,0-1.2-0.5-1.2-1.2V2.5c0-0.7,0.5-1.2,1.2-1.2h9.6
			c0.7,0,1.2,0.5,1.2,1.2V12.2z"/>
		<path fill="#FCF8F8" d="M41.6,12.2c0,0.7-0.5,1.2-1.2,1.2h-9.6c-0.7,0-1.2-0.5-1.2-1.2V2.5c0-0.7,0.5-1.2,1.2-1.2h9.6
			c0.7,0,1.2,0.5,1.2,1.2V12.2z"/>
		<path fill="#FCF8F8" d="M12.9,26.5c0,0.7-0.5,1.2-1.2,1.2H2.1c-0.7,0-1.2-0.5-1.2-1.2v-9.7c0-0.7,0.5-1.2,1.2-1.2h9.6
			c0.7,0,1.2,0.5,1.2,1.2V26.5z"/>
		<path fill="#FCF8F8" d="M27.3,26.5c0,0.7-0.5,1.2-1.2,1.2h-9.6c-0.7,0-1.2-0.5-1.2-1.2v-9.7c0-0.7,0.5-1.2,1.2-1.2h9.6
			c0.7,0,1.2,0.5,1.2,1.2V26.5z"/>
		<path fill="#FCF8F8" d="M12.9,40.8c0,0.7-0.5,1.2-1.2,1.2H2.1c-0.7,0-1.2-0.5-1.2-1.2v-9.6c0-0.7,0.5-1.2,1.2-1.2h9.6
			c0.7,0,1.2,0.5,1.2,1.2V40.8z"/>
		<path fill="#FCF8F8" d="M27.3,40.8c0,0.7-0.5,1.2-1.2,1.2h-9.6c-0.7,0-1.2-0.5-1.2-1.2v-9.6c0-0.7,0.5-1.2,1.2-1.2h9.6
			c0.7,0,1.2,0.5,1.2,1.2V40.8z"/>
		<path fill="#FCF8F8" d="M12.9,55c0,0.7-0.5,1.2-1.2,1.2H2.1c-0.7,0-1.2-0.5-1.2-1.2v-9.6c0-0.7,0.5-1.2,1.2-1.2h9.6
			c0.7,0,1.2,0.5,1.2,1.2V55z"/>
		<path fill="#FCF8F8" d="M27.3,55c0,0.7-0.5,1.2-1.2,1.2h-9.6c-0.7,0-1.2-0.5-1.2-1.2v-9.6c0-0.7,0.5-1.2,1.2-1.2h9.6
			c0.7,0,1.2,0.5,1.2,1.2V55z"/>
		<path fill="#FCF8F8" d="M13.6,7.4c0,3.6-3,6.6-6.6,6.6s-6.6-3-6.6-6.6s3-6.6,6.6-6.6C10.6,0.8,13.6,3.8,13.6,7.4"/>
	</g>
</g>
</svg>
